<?xml version="1.0" encoding="UTF-8"?>
<svg id="Layer_2" data-name="Layer 2" xmlns="http://www.w3.org/2000/svg" viewBox="0 0 106.73 87.15">
  <defs>
    <style>
      .cls-1 {
        fill: #231f20;
      }

      .cls-2 {
        fill: #e01e49;
      }
    </style>
  </defs>
  <g id="Layer_1-2" data-name="Layer 1">
    <path class="cls-2" d="M31.59,73h-15.25c-.64,0-1.15-.52-1.15-1.15V15.3c0-.64.52-1.15,1.15-1.15h15.25c.64,0,1.15-.52,1.15-1.15V1.15C32.74.52,32.23,0,31.59,0H1.15C.52,0,0,.52,0,1.15v84.85c0,.64.52,1.15,1.15,1.15h30.44c.64,0,1.15-.52,1.15-1.15v-11.85c0-.64-.52-1.15-1.15-1.15Z"/>
    <path class="cls-2" d="M75.14,73h15.25c.64,0,1.15-.52,1.15-1.15V15.3c0-.64-.52-1.15-1.15-1.15h-15.25c-.64,0-1.15-.52-1.15-1.15V1.15c0-.64.52-1.15,1.15-1.15h30.44c.64,0,1.15.52,1.15,1.15v84.85c0,.64-.52,1.15-1.15,1.15h-30.44c-.64,0-1.15-.52-1.15-1.15v-11.85c0-.64.52-1.15,1.15-1.15Z"/>
    <path class="cls-1" d="M49.8,66.81h-15.38c-1.26,0-2.07-1.34-1.49-2.46l22.51-43.12c.29-.55.86-.9,1.49-.9h15.38c1.26,0,2.07,1.34,1.49,2.46l-22.51,43.12c-.29.55-.86.9-1.49.9Z"/>
  </g>
</svg>
